<?xml version="1.0" standalone="no"?>
<!DOCTYPE svg PUBLIC "-//W3C//DTD SVG 20010904//EN"
 "http://www.w3.org/TR/2001/REC-SVG-20010904/DTD/svg10.dtd">
<svg version="1.0" xmlns="http://www.w3.org/2000/svg"
 width="400.000000pt" height="400.000000pt" viewBox="0 0 400.000000 400.000000"
 preserveAspectRatio="xMidYMid meet">
<metadata>
Created by potrace 1.11, written by Peter Selinger 2001-2013
</metadata>
<g transform="translate(0.000000,400.000000) scale(0.100000,-0.100000)"
fill="#000000" stroke="none">
<path d="M1937 3784 c-1 -1 -38 -5 -82 -8 -96 -8 -124 -11 -150 -19 -11 -3
-38 -8 -60 -12 -77 -11 -244 -65 -336 -109 -29 -15 -57 -26 -61 -26 -5 0 -50
-25 -100 -55 -50 -30 -95 -55 -100 -55 -4 0 -8 -3 -8 -7 -1 -5 -24 -24 -51
-43 -79 -55 -127 -97 -226 -200 -112 -115 -123 -127 -123 -140 0 -5 -4 -10 -8
-10 -5 0 -24 -24 -42 -52 -19 -29 -37 -55 -40 -58 -17 -14 -146 -259 -152
-290 -2 -8 -5 -17 -8 -20 -6 -5 -68 -186 -77 -223 -2 -12 -6 -31 -8 -42 -1
-11 -7 -38 -13 -60 -10 -38 -17 -87 -29 -205 -11 -106 -5 -317 11 -410 4 -19
8 -48 10 -65 2 -16 6 -37 9 -45 3 -8 8 -28 10 -45 3 -16 15 -64 28 -105 13
-41 24 -77 24 -80 2 -6 7 -18 48 -120 74 -181 216 -395 359 -540 91 -93 158
-153 158 -143 0 4 5 1 10 -8 19 -32 188 -141 315 -203 115 -55 142 -66 228
-92 45 -14 89 -28 97 -31 8 -3 24 -7 36 -8 11 -2 38 -8 60 -13 74 -20 149 -26
334 -26 167 -1 219 3 300 19 14 3 39 8 55 11 72 14 186 48 285 86 62 23 238
116 303 159 124 83 268 211 369 326 38 44 132 173 148 203 7 14 16 27 19 30 3
3 19 30 35 60 16 30 37 69 46 85 56 105 135 350 156 485 3 19 9 53 13 75 4 22
7 64 7 92 -1 29 1 53 4 53 11 0 -1 291 -15 360 -3 14 -8 43 -10 64 -3 21 -8
42 -10 46 -3 4 -7 25 -11 46 -26 171 -217 576 -319 677 -8 9 -15 18 -15 22 0
20 -286 305 -307 305 -2 0 -23 15 -46 34 -53 42 -223 145 -254 152 -13 4 -23
10 -23 15 0 5 -8 9 -18 9 -10 0 -22 4 -28 8 -13 11 -108 48 -184 71 -65 20
-87 25 -170 41 -25 5 -56 12 -70 15 -44 10 -315 26 -323 19z"/>
</g>
</svg>
